<svg xmlns="http://www.w3.org/2000/svg" viewBox="0 0 28 28" width="28" height="28">
  <!-- DeepSeek monogram: stylized "DS" + caret accent, path-based for reliable rendering -->
  <!-- Letter D -->
  <path d="M6 5v18h5c3.5 0 6-2.5 6-6v-0.5c0-2.5-1.5-4.5-3.5-5.5 1.5-1 2.5-2.8 2.5-4.5V6c0-3-2.2-5-5.5-5H6zm4 7.5h1c1.5 0 2.8 1.2 2.8 2.8v0.5c0 1.5-1.3 2.7-2.8 2.7h-1V12.5zm0-3V4.5h1.2c1.5 0 2.8 1.2 2.8 2.8v0.3c0 1.5-1.2 2.7-2.7 2.7H10z" fill="currentColor"/>
  <!-- Letter S -->
  <path d="M22.5 5c-2.2 0-4.5 1-4.5 3.5 0 2.8 2.5 3.5 4 4 1.5 0.5 2.5 1.5 2.5 3 0 2-2 2.5-3.5 2.5-1.8 0-3.5-1-3.5-3h-2.5c0 3.5 3 5.5 6 5.5 2.5 0 4.8-1.5 4.8-4.5 0-2.8-2.2-3.5-4-4-1.5-0.5-2.5-1.5-2.5-3 0-1.5 1.2-2 2.5-2 1.5 0 2.8 0.8 3 2.2h2.5c-0.2-3.2-2.5-5.2-5.3-5.2z" fill="currentColor"/>
  <!-- Caret accent >_ -->
  <path d="M23 9l-1.5 2h3l-1.5 2" fill="none" stroke="currentColor" stroke-width="1.5" stroke-linecap="round" stroke-linejoin="round" opacity="0.45"/>
</svg>
